:SAMPLES-PER-SECOND 30
:FULLY-SPECIFIED
:DEGREES
220
root  34.93014358 36.48899108 -14.77086976 11.17966843 9.491790771 4.446621418
lowerback  -8.052370071 3.739729881 4.108039856
upperback  -4.071479797 4.398049831 -4.569869041
thorax  0.9508910179 1.971446514 -6.669099808
lowerneck  -17.53190041 4.844359875 7.549429893
upperneck  16.34189987 3.831400394 2.830800056
head  8.078680038 2.499939919 0.1708290428
lclavicle  0 -4.497500157e-015 -2.743230041e-014
lhumerus  -42.63600159 24.13069916 69.78659821
lradius  -0.1403635442 -6.507048965e-006 25.69390106
lwrist  4.824992743e-007 -3.790274832e-007 -32.04999924
lhand  -4.437294816e-031 -37.27069855 -10.64210033
lfingers  90 7.125020027 -90
lthumb  94.98254316 -25.46518956 101.4622172
rclavicle  0 -4.497500157e-015 -2.743230041e-014
rhumerus  68.04090118 11.30420017 -60.18880081
rradius  -5.16745672e-007 2.214343908e-008 37.36930084
rwrist  -3.062178075e-005 0.01194404531 -152.1920013
rhand  -1.770691619e-031 4.36206007 -7.483320236
rfingers  -90 -7.125020027 -90
rthumb  -85.05548036 -8.571896007 -59.86791121
rfemur  -13.99426174 11.6546402 14.27924347
rtibia  -2.684256792 1.870743752 23.65103912
rfoot  -2.391497135 -15.48491001 -43.84525681
rtoes  3.864866905 19.63803791 -101.3659461
lfemur  -11.70421124 -22.14462852 -18.91003227
ltibia  3.399734497 1.938204408 14.86255264
lfoot  0.9328479171 -28.94672203 30.85767937
ltoes  -8.66697179 -18.09423329 -116.1415916
221
root  34.93204793 36.48406502 -14.7741513 11.14372349 9.469979286 4.412851334
lowerback  -8.083950043 3.74849987 4.082709789
upperback  -4.071079731 4.409349918 -4.566629887
thorax  0.9663230181 1.970675349 -6.658249855
lowerneck  -17.51609993 4.849790096 7.549369812
upperneck  16.34250069 3.845380068 2.809689999
head  8.076846123 2.504611731 0.1705973893
lclavicle  0 -4.497500157e-015 -2.743230041e-014
lhumerus  -42.68450165 24.18390083 69.72299957
lradius  -0.1418071836 -6.507048965e-006 25.70550156
lwrist  4.824992743e-007 -3.790274832e-007 -32.11579895
lhand  -0 -37.25329971 -10.63650036
lfingers  90 7.125020027 -90
lthumb  94.97321377 -25.46036688 101.4431855
rclavicle  0 -4.497500157e-015 -2.743230041e-014
rhumerus  67.96790314 11.30010033 -60.2942009
rradius  -5.16745672e-007 2.214343908e-008 37.39260101
rwrist  -3.062178075e-005 0.01194404531 -152.2590027
rhand  -1.770786731e-031 4.402219772 -7.467299938
rfingers  -90 -7.125020027 -90
rthumb  -85.03814071 -8.588304392 -59.8275929
rfemur  -13.95600796 11.64847088 14.29897118
rtibia  -2.660881996 1.890403271 23.61675835
rfoot  -2.376524687 -15.48646069 -43.83184052
rtoes  3.836736516 19.64334348 -101.2822547
lfemur  -11.67820263 -22.14708328 -18.87913132
ltibia  3.38347435 1.934958696 14.87757492
lfoot  0.9484211206 -28.97511673 30.93635559
ltoes  -8.663999644 -18.09561957 -116.1320223
222
root  34.93375403 36.4850262 -14.77606766 11.13342571 9.478089333 4.407147408
lowerback  -8.08275032 3.736880064 4.07652998
upperback  -4.071059704 4.393899918 -4.553110123
thorax  0.9560859799 1.969941378 -6.642270088
lowerneck  -17.47990036 4.868060112 7.540599823
upperneck  16.33709908 3.879530191 2.797770023
head  8.069239616 2.518919945 0.1711770743
lclavicle  0 -4.497500157e-015 -2.743230041e-014
lhumerus  -42.73929977 24.19829941 69.70600128
lradius  -0.1432590932 -6.507048965e-006 25.72749901
lwrist  4.824992743e-007 -3.790274832e-007 -32.02769852
lhand  -0 -37.23020172 -10.63659954
lfingers  90 7.125020027 -90
lthumb  94.96241608 -25.46131841 101.4184844
rclavicle  0 -4.497500157e-015 -2.743230041e-014
rhumerus  67.91970062 11.33150005 -60.29299927
rradius  -5.16745672e-007 2.214343908e-008 37.4292984
rwrist  -3.062178075e-005 0.01194404531 -152.2859955
rhand  -1.770724771e-031 4.376100063 -7.50936985
rfingers  -90 -7.125020027 -90
rthumb  -85.06550427 -8.550245295 -59.8562009
rfemur  -13.94686031 11.64300823 14.30029678
rtibia  -2.65425992 1.889083862 23.61833382
rfoot  -2.394720554 -15.51194763 -43.86436844
rtoes  3.83755572 19.64318954 -101.2846916
lfemur  -11.67503357 -22.1221714 -18.87551308
ltibia  3.377986431 1.931317091 14.87740612
lfoot  0.9418951273 -28.98483658 30.92589569
ltoes  -8.65149572 -18.10144517 -116.0917717
223
root  34.93648739 36.49325934 -14.77868688 11.12986088 9.47176075 4.384093761
lowerback  -8.064498901 3.729650021 4.067639351
upperback  -4.071354389 4.385099888 -4.55306673
thorax  0.9420170188 1.968983293 -6.642109871
lowerneck  -17.4185009 4.867929935 7.501329899
upperneck  16.26609993 3.885639668 2.859450102
head  8.032551765 2.523047447 0.1959071308
lclavicle  0 -4.497500157e-015 -2.743230041e-014
lhumerus  -42.78010178 24.20739937 69.67189789
lradius  -0.1447188258 -6.507048965e-006 25.74130249
lwrist  4.824992743e-007 -3.790274832e-007 -31.99570084
lhand  -4.433634775e-031 -37.20849991 -10.68550014
lfingers  90 7.125020027 -90
lthumb  94.96296558 -25.50998002 101.3999255
rclavicle  0 -4.497500157e-015 -2.743230041e-014
rhumerus  67.86019897 11.37979984 -60.23920441
rradius  -5.16745672e-007 2.214343908e-008 37.4742012
rwrist  -3.062178075e-005 0.01194404531 -152.3049927
rhand  -1.770893344e-031 4.446800232 -7.493040085
rfingers  -90 -7.125020027 -90
rthumb  -85.04094474 -8.56897586 -59.7860468
rfemur  -13.94501495 11.67123985 14.31305313
rtibia  -2.630776882 1.938421965 23.61553574
rfoot  -2.400226593 -15.47132874 -43.88859177
rtoes  3.84485621 19.6418162 -101.3064096
lfemur  -11.71223259 -22.13352966 -18.83841705
ltibia  3.346428156 1.924515605 14.91671276
lfoot  0.9117039442 -28.97501373 30.90471077
ltoes  -8.647520468 -18.10329503 -116.0789779
